<svg baseProfile="full" xmlns="http://www.w3.org/2000/svg" xmlns:xlink="http://www.w3.org/1999/xlink" xmlns:ev="http://www.w3.org/2001/xml-events" width="1920" height="1080"><title>one colour solid color single plain lime light lime 1920x1080 #cbedad</title><desc>one colour solid color single plain lime light lime 1920x1080 #cbedad</desc><style >.x{font:20px verdana;fill:#fff;stroke:#555;stroke-width:20px;opacity:.35}.o{stroke:none;opacity:.01}</style><path fill="#cbedad" d="M0 0H1920V1080H0z"/><path class="x o" d="M5 5h2v1H6v1h1v1H5zM4 3h4v1h1v5H8v1H4V9H3V4h1v5h4V4H4zm7 1h1v2h1V4h1v2h-1v1h1v2h-1V7h-1v2h-1V7h1V6h-1zm4 0h5v5h-1V5h-1v4h-1V5h-1v4h-1zm6 0h3l-1 1h-1v3h1V5l1-1v5h-2v2h-1zm4-2h1v6h1v1h-2zm3 2h3l-1 1h-1v1h1V5l1-1v3h-2v1h2v1h-3V4zm4 4h1v1h-1zm2-4h3v1h-2v3h2v1h-3zm4 0h3v5h-3l1-1h1V5h-1v3l-1 1zm4 0h5v5h-1V5h-1v4h-1V5h-1v4h-1z"/><text x="4" y="1074" class="x o">© xmple.com</text><a xlink:href="https://www.xmple.com"><text text-anchor="end" x="1910" y="22" class="x o">xmple.com</text></a><a xlink:href="https://www.xmple.com"><g transform="translate(1719.441615792,1041.900003) scale(0.0304799976)" id="a" class="x"><path d="m549 679c9 0 16 3 21 9 6 6 9 13 9 22 0 8-3 15-9 22-25 21-52 37-82 49-30 11-62 17-95 17-75 0-139-26-192-80-53-53-80-117-80-192 0-75 27-139 80-192 53-53 117-80 192-80 33 0 65 6 95 17 30 11 58 28 82 49 7 6 11 14 11 23 0 9-3 16-9 22-6 6-13 9-21 9-7 0-14-2-19-7-39-34-86-52-139-52-59 0-108 21-149 62-41 41-62 91-62 149 0 59 21 108 62 149 41 41 91 62 149 62 25 0 50-5 74-14 24-9 45-22 64-38 5-4 11-6 19-6zm234-153c0 108-38 201-115 277-76 76-169 114-276 114-108 0-2e2-38-277-114C39 726 0 634 0 526c0-108 38-2e2 115-276 76-77 168-115 277-115 108 0 2e2 38 276 115 77 76 115 168 115 276zM392 176c-96 0-179 34-248 103C76 347 42 429 42 526c0 97 34 179 102 248 69 68 152 103 248 103 96 0 178-34 247-103 69-69 103-151 103-247 0-97-34-179-103-247-68-69-150-103-247-103zm937 367-186-223c-5-5-7-12-7-20 0-8 3-16 9-21 6-6 13-9 22-9 8 0 15 3 21 9l181 216 180-216c7-6 14-9 22-9 9 0 16 3 22 9 6 6 9 13 9 22 0 8-3 15-7 20l-187 223 188 225c4 6 6 12 6 19 0 9-3 16-9 22-6 6-13 9-22 9-8 0-15-3-20-9l-182-217-182 217c-5 6-12 9-20 9-9 0-16-3-22-9-6-6-9-13-9-21 0-7 2-13 6-18zm412 244c0 9-3 16-9 22-6 6-13 9-22 9-8 0-15-3-21-9-6-6-9-13-9-21V302c0-8 3-16 9-21 6-6 13-9 21-9 9 0 16 3 22 9 6 6 9 13 9 22v33c49-42 1e2-63 152-63 58 0 108 21 150 63 10 10 21 23 32 38 11-15 22-28 32-38 42-42 92-62 150-62 59 0 109 21 151 63 41 41 62 92 62 150v304c0 9-3 16-9 22-6 6-13 9-22 9-8 0-15-3-21-9-6-6-9-13-9-21V488c0-42-15-78-45-107-30-30-65-45-107-45-41 0-77 15-107 45-30 30-45 65-45 107v304c0 9-3 16-9 22-6 6-13 9-21 9-9 0-16-3-22-9-6-6-9-13-9-21V489c0-42-14-78-44-107-30-30-66-45-107-45-42 0-78 15-108 45-29 30-44 65-44 107zm861-243c0 59 21 109 63 150 41 42 91 63 150 63 59 0 109-21 150-62 42-41 62-91 62-150 0-59-20-109-62-150-41-42-91-62-150-62-59 0-109 21-150 63-42 42-63 92-63 150zm0 478c0 9-3 16-9 22-6 5-13 8-21 8-9 0-16-3-22-8-6-6-8-13-8-22V545c0-75 26-140 80-193 53-53 117-80 193-80 75 0 140 27 193 80 54 53 80 118 80 193 0 76-26 140-80 193-53 53-118 80-193 80-76 0-140-27-193-80l-20-19zm568-956c0-8 3-16 9-21 6-6 13-9 21-9 9 0 16 3 22 9 6 6 9 13 9 21v691h50c9 0 16 3 22 9 6 6 9 13 9 22 0 9-3 16-9 22-6 6-13 9-22 9h-81c-8 0-15-3-21-9-6-6-9-13-9-21zm716 448c-9-48-30-89-61-120-42-42-92-62-151-62-58 0-108 21-150 63-31 31-52 71-62 120zm-56 186c9 0 16 3 22 9 5 6 8 13 8 22 0 8-2 15-7 21-51 44-111 66-179 66-75 0-140-27-193-80-53-53-80-118-80-193 0-75 27-140 80-193 53-53 118-80 193-80 76 0 140 27 194 80 53 53 80 118 80 193 0 9-3 16-9 22-6 6-13 9-22 9h-455c10 49 31 89 62 120 42 42 92 63 150 63 27 0 52-4 75-13 22-9 43-21 62-37 6-4 12-7 19-7zm307 67c0 14-5 26-15 36-9 10-21 15-36 15-14 0-26-5-36-15-9-10-14-22-14-36 0-14 5-26 14-36 10-10 22-15 36-15 15 0 27 5 36 15 10 9 15 21 15 36zm515-68c8 0 15 3 21 9 6 6 9 13 9 22 0 9-3 16-9 22-25 21-52 37-83 49-30 11-62 17-95 17-76 0-140-27-194-80-53-53-80-118-80-193 0-75 27-140 80-193 54-53 118-80 194-80 33 0 65 6 96 17 30 11 57 28 82 49 3 3 5 7 7 11 3 4 4 9 4 13 0 8-3 16-9 21-6 6-13 9-22 9-7 0-14-2-19-7-40-35-86-52-139-52-59 0-109 21-151 63-41 41-62 91-62 150 0 59 21 109 62 150 42 42 92 63 151 63 25 0 50-5 74-14 24-9 46-22 65-38 5-4 11-6 18-6zm663-155c0 76-27 140-80 193-54 53-118 80-193 80-76 0-140-27-194-80-53-53-80-118-80-193 0-75 27-140 80-193 54-53 118-80 194-80 75 0 139 27 193 80 53 53 80 118 80 193zm-273-213c-59 0-109 21-151 63-42 42-62 92-62 150 0 59 20 109 62 150 42 42 92 63 151 63 58 0 108-21 150-62 41-41 62-91 62-150 0-59-21-109-62-150-42-42-92-62-150-62zm410 456c0 9-3 16-9 22-6 6-13 9-22 9-8 0-15-3-21-9-6-6-9-13-9-21V302c0-8 3-16 9-21 6-6 13-9 21-9 9 0 16 3 22 9 6 6 9 13 9 22v33c49-42 1e2-63 152-63 58 0 108 21 150 63 10 10 21 23 32 38 11-15 21-28 32-38 42-42 92-62 150-62 59 0 109 21 151 63 41 41 62 92 62 150v304c0 9-3 16-9 22-6 6-13 9-22 9-8 0-15-3-21-9-6-6-9-13-9-21V488c0-42-15-78-45-107-30-30-65-45-107-45-41 0-77 15-107 45-30 30-45 65-45 107v304c0 9-3 16-9 22-6 6-13 9-21 9-9 0-16-3-22-9-6-6-9-13-9-21V489c0-42-14-78-44-107-30-30-66-45-107-45-42 0-78 15-108 45-30 30-44 65-44 107z"/></g></a></svg>